<svg xmlns="http://www.w3.org/2000/svg" viewBox="0 0 316.4 291.39"><defs><style>.cls-1{fill:#004353;}.cls-2{fill:#117e87;}.cls-3{fill:#b8b8b6;}.cls-4{fill:#fff;}</style></defs><title>Recurso 7</title><g id="Capa_2" data-name="Capa 2"><g id="Capa_1-2" data-name="Capa 1"><path class="cls-1" d="M58.78,244.92c-.12.7-.28,1.6-.48,2.68a21.59,21.59,0,0,1-3,7.53,24.84,24.84,0,0,1-3.43,4.22,23.8,23.8,0,0,1-6,4.49,28.46,28.46,0,0,1-6,2.29,28.88,28.88,0,0,1-5.19.83c-1.56.09-2.78.13-3.65.13a37.23,37.23,0,0,1-10.79-1.49,26.08,26.08,0,0,1-9.46-5.37,26.18,26.18,0,0,1-4.83-5.37,31.93,31.93,0,0,1-3.34-6.33,34.25,34.25,0,0,1-1.94-6.91A42.08,42.08,0,0,1,0,234.45c0-.88.06-2.19.18-3.92a30.93,30.93,0,0,1,1-5.8A39.9,39.9,0,0,1,3.65,218a27.88,27.88,0,0,1,4.53-6.78,24.94,24.94,0,0,1,6.38-5.1,33.47,33.47,0,0,1,6.51-2.78,26.68,26.68,0,0,1,5.68-1.09q2.55-.18,4.05-.18c.41,0,1,0,1.76,0s1.64.11,2.63.22,2.07.28,3.22.48a22.91,22.91,0,0,1,3.47.93,25.39,25.39,0,0,1,8.76,5.06,22.24,22.24,0,0,1,5.85,8.31,17.63,17.63,0,0,1,1,3.08c.18.88.32,1.59.44,2.12l-14,1c-.12-.47-.28-1-.49-1.67a9.35,9.35,0,0,0-1.19-2.29,11.9,11.9,0,0,0-2.94-3.08,13.16,13.16,0,0,0-3.17-1.67,13,13,0,0,0-2.9-.66c-.91-.09-1.63-.13-2.16-.13a15.26,15.26,0,0,0-5.1.79,15.89,15.89,0,0,0-3.78,1.9,11.78,11.78,0,0,0-2.6,2.37A26.8,26.8,0,0,0,18,221.07a21.66,21.66,0,0,0-2.07,5.2,32.57,32.57,0,0,0-.84,8.27,37.71,37.71,0,0,0,.49,6.38,22.78,22.78,0,0,0,1.37,4.88A15.88,15.88,0,0,0,19,249.45a15.59,15.59,0,0,0,2.51,2.6A12.82,12.82,0,0,0,27,254.86a23.75,23.75,0,0,0,4,.53,15.08,15.08,0,0,0,4.13-.57,13.94,13.94,0,0,0,3.75-1.67,12.32,12.32,0,0,0,3-2.73,11,11,0,0,0,1.89-3.74c.12-.47.2-.84.27-1.1a14.42,14.42,0,0,0,.17-1.63Z"/><path class="cls-1" d="M108.35,242.45c0,.88-.07,2.28-.22,4.18a20.14,20.14,0,0,1-1.62,6.21,21.55,21.55,0,0,1-9,10.64,25,25,0,0,1-6.37,2.69,27.6,27.6,0,0,1-7.13.92c-.65,0-1.57,0-2.77-.13a20.78,20.78,0,0,1-4-.75,25.35,25.35,0,0,1-4.61-1.85A19,19,0,0,1,68,261a21,21,0,0,1-5.15-8.36,29.82,29.82,0,0,1-1.63-9.59,46.2,46.2,0,0,1,.44-5,22.92,22.92,0,0,1,2.46-7.44,19.17,19.17,0,0,1,5.28-6.55,24.76,24.76,0,0,1,6.25-3.52,23.1,23.1,0,0,1,5.85-1.45c1.79-.18,3.15-.27,4.09-.27s2.13.09,3.92.27a19,19,0,0,1,5.85,1.67A19.47,19.47,0,0,1,101,224.5a22,22,0,0,1,4,5.15,24.77,24.77,0,0,1,2.47,6.12A27,27,0,0,1,108.35,242.45Zm-13.28-.17v-1.54a15.09,15.09,0,0,0-.22-2.33,16,16,0,0,0-.75-2.77,9.63,9.63,0,0,0-1.59-2.78,8,8,0,0,0-4.13-3.08,14.76,14.76,0,0,0-3.34-.52,11.5,11.5,0,0,0-3.83.65,8.7,8.7,0,0,0-3.39,2.21,11.2,11.2,0,0,0-2.42,4.13,19.69,19.69,0,0,0-.92,6.56,18.39,18.39,0,0,0,1.31,7.74,11.08,11.08,0,0,0,3.35,4.22,9.39,9.39,0,0,0,5.63,1.76,15.59,15.59,0,0,0,2.33-.26,8.25,8.25,0,0,0,3.3-1.5,9.58,9.58,0,0,0,2.34-2.5,13.74,13.74,0,0,0,1.45-3.13,17.11,17.11,0,0,0,.7-3.43A33.71,33.71,0,0,0,95.07,242.28Z"/><path class="cls-1" d="M123.61,226.26a26.85,26.85,0,0,1,2.25-3.16,10.81,10.81,0,0,1,4.9-3.17c.41-.12,1.11-.28,2.07-.48a15.4,15.4,0,0,1,3.23-.31c.4,0,1,0,1.89.13a16,16,0,0,1,2.78.57,13,13,0,0,1,3.09,1.41,11,11,0,0,1,2.91,2.64,11.94,11.94,0,0,1,1.1,1.76c.27.53.46.94.58,1.23.29-.47.54-.85.74-1.14s.49-.68.84-1.15a18.89,18.89,0,0,1,1.67-1.63,14.66,14.66,0,0,1,2.58-1.76,18.21,18.21,0,0,1,3.51-1.4,16.38,16.38,0,0,1,4.53-.58,23.86,23.86,0,0,1,2.5.14,11,11,0,0,1,2.5.57,16.55,16.55,0,0,1,2.19.88,14.46,14.46,0,0,1,2.73,1.71,12.51,12.51,0,0,1,2.58,2.87,11.76,11.76,0,0,1,1.71,4.31,13.86,13.86,0,0,1,.35,2.24c.06.73.11,1.55.14,2.46s.06,1.94.08,3.08.05,2.48.05,4v24.28H164.18V244.21c0-.88,0-1.77-.05-2.68s0-1.8,0-2.68c-.06-.53-.12-1.1-.18-1.72a10.93,10.93,0,0,0-.26-1.63c-.12-.35-.29-.79-.53-1.32a5.14,5.14,0,0,0-1.09-1.54,5.93,5.93,0,0,0-1.84-1.23,6.81,6.81,0,0,0-2.75-.48,14.25,14.25,0,0,0-1.61.13,5.16,5.16,0,0,0-2.32,1,6.07,6.07,0,0,0-2.54,4.09,39.39,39.39,0,0,0-.34,7.09v22.52H137.52V240.08a35.74,35.74,0,0,0-.45-4.31,5.65,5.65,0,0,0-2.28-3.61,7,7,0,0,0-1.46-.79,6.15,6.15,0,0,0-2.5-.44,7.56,7.56,0,0,0-4.05,1.14,6.34,6.34,0,0,0-1.9,2.11A9.61,9.61,0,0,0,124,237a28.58,28.58,0,0,0-.31,3.79c0,1.43,0,3,0,4.79v20.15H110.76V220.19h12.85Z"/><path class="cls-2" d="M192.36,220.1v26.84c0,.24,0,.72,0,1.45a9.09,9.09,0,0,0,.39,2.25,7.13,7.13,0,0,0,2.46,3.82,6.87,6.87,0,0,0,4.32,1.37,8.42,8.42,0,0,0,3.6-.79,6.75,6.75,0,0,0,1.94-1.41,5.76,5.76,0,0,0,1.19-2.07,14.46,14.46,0,0,0,.57-2.24,11.24,11.24,0,0,0,.18-1.85V220.1H219.9v25.08a45,45,0,0,1-.52,7.13,16.67,16.67,0,0,1-2.73,6.53,22.32,22.32,0,0,1-2.24,2.62A17,17,0,0,1,211,264a20,20,0,0,1-4.8,1.95,24.11,24.11,0,0,1-6.29.75,26.52,26.52,0,0,1-5.94-.67,21.12,21.12,0,0,1-5.46-2,18,18,0,0,1-4.48-3.51,14.38,14.38,0,0,1-3-5.14,13.79,13.79,0,0,1-.8-2.86c-.18-1-.31-2-.39-2.95s-.17-1.74-.23-2.42-.08-1.1-.08-1.27V220.1Z"/><path class="cls-2" d="M266.4,265.77H253.82v-4.31c-.3.35-.56.69-.8,1a6.21,6.21,0,0,1-.79.92,17.72,17.72,0,0,1-3.78,2.29,15.35,15.35,0,0,1-6.69,1.23,16.32,16.32,0,0,1-5.67-.83,24.64,24.64,0,0,1-3.48-1.54,18.82,18.82,0,0,1-3.48-2.69,19.79,19.79,0,0,1-3.34-4.31,24.82,24.82,0,0,1-2.51-6.15,31.8,31.8,0,0,1-1-8.23,35.1,35.1,0,0,1,1.41-9.9,20.2,20.2,0,0,1,5.09-8.67,18.73,18.73,0,0,1,4-3.08,18.49,18.49,0,0,1,3.84-1.67,17.4,17.4,0,0,1,3.34-.66c1-.09,1.89-.13,2.59-.13a15.83,15.83,0,0,1,2.82.22,14.21,14.21,0,0,1,2.72.83c.36.12.74.27,1.15.44l1.15.53c.4.3.91.65,1.49,1.06s1.05.76,1.41,1.05V202H266.4Zm-12.67-23a23.83,23.83,0,0,0-1-7.13,9.11,9.11,0,0,0-2.66-4c-.41-.29-1.06-.69-1.94-1.19a7.09,7.09,0,0,0-3.45-.74,8.53,8.53,0,0,0-3.45.74,8,8,0,0,0-3,2.34,12.45,12.45,0,0,0-2.08,4.09,20.06,20.06,0,0,0-.79,6c0,.71,0,1.49.08,2.34a20.25,20.25,0,0,0,.27,2.24,13.44,13.44,0,0,0,2.78,6.2,7.5,7.5,0,0,0,6.15,2.51,8.72,8.72,0,0,0,4.06-.92,7.68,7.68,0,0,0,2.13-1.72,9.79,9.79,0,0,0,2.39-5.15A38.77,38.77,0,0,0,253.73,242.72Z"/><path class="cls-2" d="M283.14,220.19l10.21,26,8.8-26H316.4l-25.12,70.33H276.67l10.17-28.88-18-41.45Z"/><path class="cls-3" d="M205.48,290.61a.89.89,0,0,1-.66-.29,1.21,1.21,0,0,1-.26-.81,4.29,4.29,0,0,1,.48-1.45,7.7,7.7,0,0,1,1.21-1.87,2.1,2.1,0,0,1,1.52-.82c.64,0,1,.38,1,1.15a3.85,3.85,0,0,1-.51,1.63,6.76,6.76,0,0,1-1.28,1.73A2.23,2.23,0,0,1,205.48,290.61Z"/><path class="cls-3" d="M226.53,283.48V285c-1.6,1.57-2.9,2.79-3.92,3.66a16.62,16.62,0,0,1-2.83,2,5.3,5.3,0,0,1-2.57.72,3.23,3.23,0,0,1-2.27-1,6.7,6.7,0,0,1-1.62-2.56,9.65,9.65,0,0,1-.58-3.36,5.4,5.4,0,0,1,.67-2.72A15.45,15.45,0,0,1,216,278.7a24.89,24.89,0,0,1,4.25-3.47,6.53,6.53,0,0,1,3.09-1.23,1.91,1.91,0,0,1,1.38.56,2,2,0,0,1,.56,1.42,4.74,4.74,0,0,1-.74,2,11.79,11.79,0,0,1-1.66,2.31c-.62.65-1.11,1-1.46,1s-.59-.21-.59-.62c0-.12,0-.24,0-.34s0-.21,0-.32-.06-.28-.19-.3a.62.62,0,0,0-.46.17c-1.5,1.05-2.52,1.79-3.07,2.21a6.77,6.77,0,0,0-1.32,1.29,2.31,2.31,0,0,0-.48,1.38,2.85,2.85,0,0,0,.85,2.15,3,3,0,0,0,2.22.83,7.37,7.37,0,0,0,3.41-1.09A34.81,34.81,0,0,0,226.53,283.48Z"/><path class="cls-3" d="M240.89,283.39v1.51a11.9,11.9,0,0,1-2.38,1.8,5.29,5.29,0,0,1-2.59.36c-1.94,2.3-3.66,3.46-5.14,3.46a3.59,3.59,0,0,1-2.29-.83,5.84,5.84,0,0,1-1.65-2.27,8.11,8.11,0,0,1-.62-3.22,6.84,6.84,0,0,1,.95-3.19,14.63,14.63,0,0,1,2.48-3.27,14,14,0,0,1,3.24-2.45,6.86,6.86,0,0,1,3.22-.93,3.52,3.52,0,0,1,1.66.33,1,1,0,0,1,.6.91,1.68,1.68,0,0,1-.51,1,1.87,1.87,0,0,1,1.16.6,2.6,2.6,0,0,1,.32,1.51,9.81,9.81,0,0,1-.5,2.72,13.39,13.39,0,0,1-1.39,3.08l.41.41h.34a1.62,1.62,0,0,0,.75-.2,4.62,4.62,0,0,0,.66-.4Zm-4.63-5.9c-1.24.74-2.31,1.42-3.19,2a15.63,15.63,0,0,0-2.24,1.84,4.9,4.9,0,0,0-1.24,1.88c-.37,1.68-.56,2.58-.56,2.71,0,1,.69,1.49,2.06,1.49.65,0,1.73-.56,3.24-1.66a6.09,6.09,0,0,1-.38-2,7.75,7.75,0,0,1,.58-2.88A23.69,23.69,0,0,1,236.26,277.49Z"/><path class="cls-3" d="M251.12,286.52q3.1-2.75,5.32-4.78l3.5-3.2c.84-.78,1.59-1.44,2.23-2a3.25,3.25,0,0,1,1.24-.8c.34,0,.67.34,1,1.06a4.83,4.83,0,0,1,.47,1.74c0,.29-.48,1-1.43,2s-1.66,1.89-2.13,2.52a3.27,3.27,0,0,0-.71,2,1.27,1.27,0,0,0,.4,1,1.41,1.41,0,0,0,1,.37,2.84,2.84,0,0,0,1.56-.68c.61-.45,1.56-1.25,2.87-2.4V285c-1.31,1.22-2.49,2.28-3.56,3.17a17.94,17.94,0,0,1-2.77,2,4.17,4.17,0,0,1-2,.67,1.5,1.5,0,0,1-1.17-.53,1.88,1.88,0,0,1-.48-1.32,5.11,5.11,0,0,1,.27-1.55,13.78,13.78,0,0,1,.84-1.86c.37-.72.86-1.59,1.48-2.6l1.68-2.77c-1.52,1.24-2.88,2.44-4.06,3.59s-2.15,2.16-2.9,3l-1.78,2a3.39,3.39,0,0,1-2.33,1.39c-.78,0-1.17-.55-1.17-1.66a6.7,6.7,0,0,1,.88-2.42q.87-1.74,2.49-4.43a1,1,0,0,0,.13-.56.4.4,0,0,0-.45-.45c-.33,0-.8.31-1.42.93s-1.83,1.92-3.61,3.9a23.44,23.44,0,0,0-1.67,2.16,19.89,19.89,0,0,1-1.34,1.79,1.13,1.13,0,0,1-.81.45q-.81,0-1.5-1.44a7.51,7.51,0,0,1-.7-3.35,5.71,5.71,0,0,1,.46-2.4,21.59,21.59,0,0,1,1.43-2.52,22,22,0,0,1,2.46-3.11,2.84,2.84,0,0,1,2-.93,2.11,2.11,0,0,1,1.1.26.79.79,0,0,1,.45.71,3.34,3.34,0,0,1-.82,1.54,16.17,16.17,0,0,1-2.08,2.23,8.32,8.32,0,0,0-1.28,1.61,3.06,3.06,0,0,0-.61,1.38c0,.4.16.61.47.61s.9-.53,1.94-1.58,2.17-2.19,3.4-3.42a36.72,36.72,0,0,1,3.44-3.08,4.76,4.76,0,0,1,2.69-1.23,1.39,1.39,0,0,1,1.1.51,1.8,1.8,0,0,1,.44,1.24,4.88,4.88,0,0,1-.67,1.79,31.46,31.46,0,0,1-2,3.19Q253.16,283.83,251.12,286.52Z"/><path class="cls-2" d="M158.2,0S131.83,22.38,80.28,22.38V139.85c0,38.27,77.92,42.35,77.92,53.54,0-11.19,77.92-15.27,77.92-53.54V22.38C184.58,22.38,158.2,0,158.2,0Z"/><path class="cls-1" d="M157.57,184.79c-4.38-2.6-11.11-4.74-19.62-7.45-21.81-6.93-51.67-16.42-51.67-37.3V29L87.49,29c38-1.32,61.63-14.61,70-20.27l.69-.47.7.47c8.39,5.66,32,19,70,20.27l1.2.05V140c0,20.88-29.86,30.37-51.66,37.3-8.51,2.71-15.24,4.85-19.62,7.45l-.64.37Z"/><g id="school"><path class="cls-4" d="M125.9,89.58V108l32.3,17.53L190.5,108V89.58l-32.3,17.53Zm32.3-47.07L107.44,70.19,158.2,97.88l41.53-22.61v31.84H209V70.19Z"/></g><path class="cls-4" d="M164.65,152.38c-3.43,0-7.43-2-10.69-5.29-3.66-3.71-5.64-8.4-5.05-12l.14-.84.3-.12-1.41.2,17.15-16.91.3-.11a7.67,7.67,0,0,1,2.61-.46c4.34,0,8.37,3.45,10.39,5.5a31,31,0,0,1,5.46,7.54c1.31,2.61,1.11,4.39.71,5.43l-.11.3-15.74,15.52-.13,0a6.6,6.6,0,0,1-3.93,1.17Z"/><path class="cls-1" d="M168,118.39c3.86,0,7.67,3.38,9.32,5a29.25,29.25,0,0,1,5.19,7.16c1.12,2.25.89,3.61.65,4.22l-15.21,15h0a5,5,0,0,1-3.27,1c-2.89,0-6.56-1.74-9.63-4.85-3.42-3.47-5.12-7.66-4.63-10.66a10.43,10.43,0,0,1,3.79-.71,11.67,11.67,0,0,1,8.44,3.88c3.2,3.24,4,5.56,3.63,6.56-.05.14-.18.56-1,.69a2.45,2.45,0,0,1-.48,0c-1.92,0-4.95-1.68-7.49-5.1l-2.1,1.57c3.39,4.57,7.12,6.14,9.63,6.14a5.76,5.76,0,0,0,.86-.07,3.67,3.67,0,0,0,3-2.45c.77-2.38-.74-5.66-4.26-9.23a13.62,13.62,0,0,0-12-4.49l-.21,0,13.66-13.47a6.1,6.1,0,0,1,2.09-.37m0-3a9.11,9.11,0,0,0-3.12.55l-.61.23-.47.45L150.14,130.1l-6.45,6.36,3.63-.51c-.19,3.87,1.87,8.44,5.57,12.19,3.54,3.6,7.94,5.74,11.76,5.74a8.16,8.16,0,0,0,4.62-1.32l.25-.07.54-.53,15.21-15,.46-.46.24-.61c.5-1.32.77-3.54-.78-6.63a32.27,32.27,0,0,0-5.74-7.92c-2.17-2.22-6.56-6-11.45-6Z"/><path class="cls-4" d="M194.42,122.61a21.12,21.12,0,0,0-5.87-9.75,29.08,29.08,0,0,0-9.31-6.42l-2.12-.85,12.64-12.45a6.35,6.35,0,0,1,4.55-1.69c3.43,0,7.42,2,10.69,5.3,5.23,5.3,6.71,12,3.36,15.33L195,125.24Z"/><path class="cls-1" d="M194.31,93c2.89,0,6.56,1.74,9.63,4.85,4.56,4.63,6.07,10.55,3.37,13.21l-11.43,11.27a22.3,22.3,0,0,0-6.26-10.47,30.49,30.49,0,0,0-9.82-6.76l11-10.81A4.88,4.88,0,0,1,194.31,93m0-3a7.83,7.83,0,0,0-5.64,2.16h0l-11,10.8-3.25,3.21,4.24,1.71a27.52,27.52,0,0,1,8.8,6.08,19.5,19.5,0,0,1,5.47,9l1.19,5.26,3.85-3.79,11.43-11.26c3.94-3.89,2.47-11.56-3.35-17.45-3.54-3.6-7.94-5.75-11.76-5.75Z"/><path class="cls-4" d="M183.12,144.92l1.66-1.57s3.95-3.79,4.38-8.49L186,138l-2.15-2.09a4.21,4.21,0,0,0,.49-3.39,9.52,9.52,0,0,0-.85-2.38,30.93,30.93,0,0,0-5.39-7.44c-3.14-3.17-6.46-5.07-9.36-5.35l-3.2-.31,11.62-11.46.76.14a6.33,6.33,0,0,1,1.29.36,29.13,29.13,0,0,1,9.6,6.56c3.74,3.81,6,8,6.23,11.86a10.2,10.2,0,0,1-.06,2.21c.35.06.74.14,1.16.24,6.79,1.57,10.56,6.34,10.33,13.07l0,.91-7.93,3.86-.11-2.28a17.17,17.17,0,0,0-1.66-6.09c.52,3.44-.18,7.73-4.84,11.47l-.7.57Z"/><path class="cls-1" d="M177.68,107.15a5.56,5.56,0,0,1,1,.28,27.58,27.58,0,0,1,9.08,6.23c3.13,3.18,5.53,7.07,5.81,10.9a9.46,9.46,0,0,1-.35,3.35,23,23,0,0,1,2.6.46c3.56.82,9.44,3.42,9.17,11.56l-5.07,2.47s-.34-7.51-5.54-11.13a10.62,10.62,0,0,0-1.72-1s0,0,0-.05a.43.43,0,0,0,0,.07,17.73,17.73,0,0,1,1,1.65c1.72,3.18,3.81,9.5-2.69,14.71l-5.18-2.23s4.38-4.13,4.85-9.5a10.17,10.17,0,0,0-.19-3,4.54,4.54,0,0,1-.63.18l-4.87,4.8a5.49,5.49,0,0,0,.86-4.7,11,11,0,0,0-1-2.76,32.43,32.43,0,0,0-5.66-7.82c-3-3-6.66-5.45-10.29-5.79l8.78-8.67m-1-3.22-1.1,1.09-8.79,8.66-4.57,4.51,6.39.61c2.55.25,5.55,2,8.44,4.92a29,29,0,0,1,5.12,7.05,7.74,7.74,0,0,1,.71,2,3,3,0,0,1-.21,2.21.51.51,0,0,1,.1-.12l2.2,2,1.54,1.56a16.08,16.08,0,0,1-2.75,3.81l-3.32,3.13,4.18,1.81,5.18,2.24,1.65.71,1.41-1.13a15.25,15.25,0,0,0,4.14-5l.13,3,4.11-2,5.07-2.47,1.62-.79L208,140c.25-7.48-3.9-12.79-11.4-14.56a10.54,10.54,0,0,0,0-1.12c-.3-4.2-2.67-8.74-6.66-12.8a30.87,30.87,0,0,0-10.12-6.91,8.51,8.51,0,0,0-1.57-.44l-1.53-.27Z"/></g></g></svg>