<svg viewBox="0 0 32 32" xmlns="http://www.w3.org/2000/svg"><g id="email"><path d="m27.4292 27.93555h-22.8584a3.41516 3.41516 0 0 1 -3.41162-3.41114v-17.04882a3.41516 3.41516 0 0 1 3.41162-3.41114h22.8584a3.41516 3.41516 0 0 1 3.41162 3.41114v17.04882a3.41516 3.41516 0 0 1 -3.41162 3.41114zm-22.85742-2h22.85644l-8.522-8.52149c-.541.541-.92676.92725-1.085 1.08545a2.62757 2.62757 0 0 1 -3.6416.001c-.15283-.15332-.53955-.54053-1.08594-1.08692zm15.749-9.936 8.52 8.52051v-17.03861c-1.95192 1.95243-6.03051 6.02955-8.51998 8.51806zm-17.1616-8.51855v17.039l8.52051-8.521c-2.36639-2.36623-6.45035-6.44743-8.52051-8.518zm1.41162-1.41655c2.12144 2.12655 9.9232 9.91486 11.02489 11.02392a.56828.56828 0 0 0 .81056-.00194c1.55973-1.5717 9.01606-9.00681 11.023-11.022z"/></g></svg>